<svg width="48" height="48" viewBox="0 0 48 48" fill="none" xmlns="http://www.w3.org/2000/svg">
<path d="M0 0H48V48H0V0Z" fill="#323238"/>
<path d="M12.0469 11.4844C12.1641 11.4844 12.1266 11.3906 12.1359 11.3297C12.2766 10.3594 12.7781 9.65154 13.7156 9.34685C14.4703 9.1031 15.2578 9.13123 15.9609 9.53435C16.4016 9.79216 16.7391 10.1906 16.9172 10.6828C17.0484 11.0484 17.1469 11.4281 17.1047 11.8172C17.0063 12.7969 16.5656 13.6125 15.4875 13.9922C14.6719 14.2734 13.8797 14.1703 13.1344 13.725C13.0875 13.5562 12.9703 13.4719 12.8016 13.4437C12.7969 13.3781 12.7875 13.3125 12.6984 13.3125C12.3609 12.9375 12.2016 12.4828 12.1359 11.9906C12.1266 11.9344 12.15 11.8547 12.0469 11.8594C12.0469 11.7328 12.0469 11.6109 12.0469 11.4844Z" fill="#FFFEFE"/>
<path d="M24.9468 19.1297C25.1484 19.0078 25.2281 18.8297 25.3312 18.6844C25.8422 17.9812 26.475 17.4375 27.2625 17.0484C28.3406 16.5187 29.4844 16.4625 30.6375 16.5703C31.5234 16.65 32.3625 16.95 33.1265 17.4375C34.0359 18.0187 34.6875 18.825 35.1328 19.7906C35.4047 20.3765 35.5828 21 35.6906 21.6469C35.789 22.2515 35.864 22.8469 35.864 23.4609C35.8594 26.5078 35.8594 29.5547 35.8687 32.6015C35.8687 32.8172 35.8078 32.8734 35.5969 32.8687C34.1578 32.8593 32.7234 32.8593 31.2843 32.8687C31.0734 32.8687 31.0265 32.8078 31.0265 32.6062C31.0312 29.7328 31.0453 26.8547 31.0218 23.9812C31.0172 23.3297 30.9281 22.6828 30.5906 22.0875C30.2906 21.5625 29.8734 21.1875 29.325 20.9719C28.589 20.6812 27.8297 20.625 27.0609 20.8406C26.2828 21.0562 25.7437 21.5672 25.3593 22.2609C25.1437 22.65 25.0687 23.0578 25.0078 23.4937C24.9468 23.9625 24.9562 24.4219 24.9562 24.8859C24.9468 27.45 24.9468 30.0093 24.9562 32.5734C24.9562 32.8078 24.9 32.8734 24.6609 32.8687C23.2406 32.8547 21.8156 32.8593 20.3953 32.8687C20.1984 32.8687 20.1281 32.8078 20.1328 32.625C20.1375 32.4937 20.1468 32.3625 20.1468 32.2312C20.1468 27.2859 20.1515 22.3406 20.1422 17.3953C20.1422 17.189 20.1843 17.114 20.4093 17.114C21.839 17.1234 23.2687 17.1234 24.6984 17.114C24.8906 17.114 24.9562 17.1609 24.9515 17.3625C24.9375 17.9344 24.9468 18.5109 24.9468 19.1297Z" fill="#FFFEFE"/>
<path d="M17.1093 17.2546C17.1093 17.4187 17.114 17.5827 17.114 17.7468C17.114 22.6827 17.114 27.6187 17.114 32.5593C17.114 32.8593 17.114 32.8593 16.8093 32.8593C15.3187 32.8593 13.8234 32.8593 12.3328 32.8593C12.3281 32.7421 12.3234 32.6249 12.3234 32.5077C12.3234 28.814 12.3234 25.1249 12.3234 21.4312C12.3234 20.114 12.3281 18.7921 12.3187 17.4749C12.3187 17.3062 12.3609 17.2452 12.539 17.2452C14.0625 17.2546 15.5859 17.2499 17.1093 17.2546Z" fill="#FFFEFE"/>
<path d="M17.1093 17.2547C15.5859 17.2547 14.0671 17.2547 12.5437 17.2453C12.3656 17.2453 12.3234 17.3016 12.3234 17.475C12.3281 18.7922 12.3234 20.1094 12.3234 21.4313C12.3234 25.125 12.3234 28.8141 12.3234 32.5078C12.3234 32.625 12.3281 32.7422 12.3328 32.8594C12.2531 32.8641 12.1921 32.8453 12.1921 32.7516C12.1921 32.6906 12.1921 32.625 12.1921 32.5641C12.1921 27.5578 12.1921 22.5563 12.1921 17.55C12.1921 17.1938 12.225 17.1609 12.5765 17.1609C14.0062 17.1609 15.4359 17.1609 16.8609 17.1656C16.9453 17.1609 17.0718 17.0953 17.1093 17.2547Z" fill="white"/>
<path d="M12.8015 13.4484C12.9703 13.4766 13.0875 13.5609 13.1343 13.7297C12.989 13.6734 12.8812 13.5797 12.8015 13.4484Z" fill="white"/>
<path d="M12.6985 13.3171C12.7875 13.3171 12.7922 13.3828 12.8016 13.4484C12.7032 13.4531 12.7032 13.3875 12.6985 13.3171Z" fill="white"/>
</svg>
